<svg width="222" height="25" viewBox="0 0 222 25" fill="none" xmlns="http://www.w3.org/2000/svg">
<path d="M4.95061 24.7529H0V-0.000128269H14.8518V4.95048H4.95061V9.90109H14.8518V14.8517H4.95061V24.7529ZM14.8518 9.90109V4.95048H19.8024V9.90109H14.8518ZM27.7234 24.7529H22.7728V-0.000128269H27.7234V24.7529ZM37.6246 9.90109H32.674V-0.000128269H37.6246V9.90109ZM47.5259 9.90109H42.5753V-0.000128269H47.5259V9.90109ZM42.5753 9.90109V14.8517H37.6246V9.90109H42.5753ZM37.6246 24.7529H32.674V14.8517H37.6246V24.7529ZM47.5259 24.7529H42.5753V14.8517H47.5259V24.7529ZM72.2789 19.8023V24.7529H52.4765V-0.000128269H72.2789V4.95048H57.4271V9.90109H67.3283V14.8517H57.4271V19.8023H72.2789ZM92.0814 19.8023V24.7529H77.2295V-0.000128269H82.1801V19.8023H92.0814Z" fill="#1B1A1A"/>
<path d="M100.794 4.95048V-0.000128269H110.696V4.95048H100.794ZM100.794 24.7529H95.8438V4.95048H100.794V9.90109H110.696V4.95048H115.646V24.7529H110.696V14.8517H100.794V24.7529ZM124.755 24.7529H119.805V-0.000128269H134.657V4.95048H124.755V9.90109H134.657V14.8517H124.755V24.7529ZM134.657 9.90109V4.95048H139.607V9.90109H134.657ZM148.32 4.95048V-0.000128269H158.222V4.95048H148.32ZM148.32 19.8023H143.37V4.95048H148.32V19.8023ZM163.172 19.8023H158.222V4.95048H163.172V19.8023ZM158.222 19.8023V24.7529H148.32V19.8023H158.222ZM181.786 19.8023V24.7529H166.935V-0.000128269H171.885V19.8023H181.786ZM199.213 19.8023V24.7529H184.361V-0.000128269H189.311V19.8023H199.213ZM207.134 4.95048V-0.000128269H217.035V4.95048H207.134ZM207.134 19.8023H202.183V4.95048H207.134V19.8023ZM221.985 19.8023H217.035V4.95048H221.985V19.8023ZM217.035 19.8023V24.7529H207.134V19.8023H217.035Z" fill="#EA0026"/>
</svg>
