<svg width="248" height="46" viewBox="0 0 248 46" fill="none" xmlns="http://www.w3.org/2000/svg">
<path d="M13.9611 8.70898C6.26353 8.70898 0 14.9705 0 22.6701C0 30.3676 6.26153 36.6311 13.9611 36.6311C21.6586 36.6311 27.9221 30.3696 27.9221 22.6701C27.9221 14.9725 21.6586 8.70898 13.9611 8.70898ZM14.1779 36.1956V33.639C14.1779 33.5198 14.0802 33.4222 13.9611 33.4222C13.8419 33.4222 13.7443 33.5198 13.7443 33.639V36.1956C6.45724 36.0804 0.550708 30.1761 0.437707 22.8891H2.99437C3.11351 22.8891 3.21117 22.7914 3.21117 22.6723C3.21117 22.5531 3.11351 22.4555 2.99437 22.4555L0.435758 22.4535C0.550993 15.1665 6.45529 9.25994 13.7423 9.14694V11.7036C13.7423 11.8227 13.84 11.9204 13.9591 11.9204C14.0783 11.9204 14.1759 11.8227 14.1759 11.7036L14.1779 9.14499C21.4649 9.26023 27.3714 15.1645 27.4844 22.4516H24.9278C24.8086 22.4516 24.711 22.5492 24.711 22.6684C24.711 22.7875 24.8086 22.8851 24.9278 22.8851H27.4844C27.3711 30.1722 21.4629 36.0806 14.1779 36.1956Z" fill="#2B2B2B"/>
<path d="M13.961 13.9727C9.16605 13.9727 5.26343 17.875 5.26343 22.6702C5.26343 27.4654 9.1658 31.3677 13.961 31.3677C18.7561 31.3677 22.6585 27.4654 22.6585 22.6702C22.6585 17.875 18.7561 13.9727 13.961 13.9727ZM13.961 30.9357C9.4043 30.9357 5.69543 27.2287 5.69543 22.6702C5.69543 18.1135 9.40445 14.4047 13.961 14.4047C18.5175 14.4047 22.2265 18.1117 22.2265 22.6702C22.2265 27.2269 18.5175 30.9357 13.961 30.9357Z" fill="#2B2B2B"/>
<path d="M13.9611 18.8374C11.8478 18.8374 10.129 20.5581 10.129 22.6695C10.129 24.7828 11.8497 26.5015 13.9611 26.5015C16.0744 26.5015 17.7932 24.7808 17.7932 22.6695C17.7932 20.5562 16.0744 18.8374 13.9611 18.8374ZM13.9611 26.0699C12.0861 26.0699 10.5607 24.5445 10.5607 22.6695C10.5607 20.7945 12.0861 19.2691 13.9611 19.2691C15.8361 19.2691 17.3615 20.7945 17.3615 22.6695C17.3615 24.5445 15.8361 26.0699 13.9611 26.0699Z" fill="#2B2B2B"/>
<circle cx="14.0289" cy="22.6701" r="2.42454" fill="#D93F3F" stroke="#D93F3F" stroke-width="0.164938"/>
<path d="M44.1984 38.6327C41.1746 38.6327 38.845 37.8305 37.2097 36.2261C35.5744 34.6216 34.7568 32.4155 34.7568 29.6077C34.7568 28.3735 35.3584 27.7564 36.5618 27.7564H38.6445C39.601 27.7564 40.0792 28.2192 40.0792 29.1448C40.0792 30.7184 40.4341 31.9064 41.1437 32.7086C41.8534 33.5108 42.8716 33.9119 44.1984 33.9119C45.4017 33.9119 46.3891 33.5725 47.1605 32.8937C47.9318 32.2149 48.3175 31.3201 48.3175 30.2093C48.3175 29.0986 47.9936 28.2038 47.3456 27.525C46.6976 26.8461 45.88 26.2599 44.8926 25.7662C43.9361 25.2417 42.8871 24.748 41.7454 24.2852C40.6346 23.7915 39.5856 23.1898 38.5982 22.4802C37.6417 21.7705 36.8395 20.8911 36.1915 19.8421C35.5436 18.7621 35.2196 17.3582 35.2196 15.6304C35.2196 12.6991 36.0218 10.4776 37.6263 8.96567C39.2616 7.45378 41.4677 6.69783 44.2447 6.69783C47.145 6.69783 49.3666 7.46921 50.9093 9.01196C52.483 10.5239 53.2698 12.6837 53.2698 15.4915C53.2698 16.7257 52.6681 17.3428 51.4647 17.3428H49.382C48.4255 17.3428 47.9473 16.88 47.9473 15.9543C47.9473 14.3807 47.6233 13.2391 46.9753 12.5294C46.3274 11.7889 45.4172 11.4186 44.2447 11.4186C41.7763 11.4186 40.5421 12.6837 40.5421 15.2138C40.5421 16.3246 40.866 17.204 41.514 17.8519C42.162 18.4999 42.9642 19.0707 43.9207 19.5644C44.9081 20.058 45.9571 20.5363 47.0679 20.9991C48.2095 21.4619 49.2586 22.0482 50.2151 22.7579C51.2025 23.4675 52.0201 24.3777 52.6681 25.4885C53.316 26.5993 53.64 28.0341 53.64 29.7928C53.64 31.2121 53.3932 32.4772 52.8995 33.588C52.4367 34.6679 51.7887 35.5935 50.9556 36.3649C50.1225 37.1054 49.1198 37.6762 47.9473 38.0774C46.8056 38.4476 45.556 38.6327 44.1984 38.6327ZM58.952 38.1699C58.0264 38.1699 57.5635 37.7071 57.5635 36.7814V9.01196C57.5635 8.45657 57.7332 8.00917 58.0726 7.66976C58.4121 7.33036 58.8594 7.16066 59.4148 7.16066H62.3306C62.9477 7.16066 63.4106 7.31493 63.7191 7.62348C64.0277 7.90118 64.2436 8.16345 64.3671 8.41029L73.3921 28.0341C73.5156 28.2809 73.6236 28.466 73.7161 28.5894C73.8087 28.682 73.9475 28.7283 74.1327 28.7283C74.4104 28.7283 74.5492 28.5277 74.5492 28.1266V8.54913C74.5492 7.62348 75.012 7.16066 75.9377 7.16066H78.1592C79.0849 7.16066 79.5477 7.62348 79.5477 8.54913V36.3186C79.5477 36.874 79.378 37.3214 79.0386 37.6608C78.6992 38.0002 78.2518 38.1699 77.6964 38.1699H74.7806C74.1635 38.1699 73.7007 38.0311 73.3921 37.7534C73.0836 37.4448 72.8676 37.1671 72.7442 36.9203L63.7191 17.2965C63.5648 17.0188 63.4414 16.8337 63.3488 16.7411C63.2563 16.6486 63.1329 16.6023 62.9786 16.6023C62.7009 16.6023 62.562 16.8028 62.562 17.204V36.7814C62.562 37.7071 62.0992 38.1699 61.1736 38.1699H58.952ZM86.0255 38.1699C85.0998 38.1699 84.637 37.7071 84.637 36.7814V8.54913C84.637 7.62348 85.0998 7.16066 86.0255 7.16066H88.4784C89.4041 7.16066 89.8669 7.62348 89.8669 8.54913V36.7814C89.8669 37.7071 89.4041 38.1699 88.4784 38.1699H86.0255ZM96.3305 38.1699C95.4049 38.1699 94.9421 37.7071 94.9421 36.7814V8.54913C94.9421 7.62348 95.4049 7.16066 96.3305 7.16066H104.384C105.68 7.16066 106.883 7.34579 107.994 7.71605C109.105 8.08631 110.061 8.65712 110.863 9.4285C111.665 10.169 112.283 11.1255 112.715 12.298C113.177 13.4396 113.409 14.7973 113.409 16.3709V20.49C113.409 21.9402 113.177 23.2361 112.715 24.3777C112.283 25.4885 111.665 26.445 110.863 27.2473C110.061 28.0186 109.089 28.6203 107.947 29.0523C106.837 29.4534 105.602 29.6539 104.245 29.6539H100.172V36.7814C100.172 37.7071 99.7092 38.1699 98.7835 38.1699H96.3305ZM100.172 11.8815V24.9331H103.967C105.448 24.9331 106.482 24.5629 107.068 23.8224C107.654 23.051 107.947 22.0173 107.947 20.7214V16.1395C107.947 14.5967 107.593 13.5014 106.883 12.8534C106.173 12.2054 105.155 11.8815 103.828 11.8815H100.172ZM124.76 38.1699C119.823 38.1699 117.355 35.7015 117.355 30.7647V8.54913C117.355 7.62348 117.818 7.16066 118.743 7.16066H131.471C132.397 7.16066 132.859 7.62348 132.859 8.54913V10.493C132.859 11.4186 132.397 11.8815 131.471 11.8815H122.585V19.9346H129.62C130.545 19.9346 131.008 20.3974 131.008 21.3231V23.267C131.008 24.1926 130.545 24.6554 129.62 24.6554H122.585V30.0242C122.585 31.2275 122.831 32.1069 123.325 32.6623C123.819 33.1868 124.852 33.4491 126.426 33.4491H131.841C132.767 33.4491 133.23 33.9119 133.23 34.8376V36.7814C133.23 37.7071 132.767 38.1699 131.841 38.1699H124.76ZM137.867 38.1699C136.942 38.1699 136.479 37.7071 136.479 36.7814V8.54913C136.479 7.62348 136.942 7.16066 137.867 7.16066H145.92C147.216 7.16066 148.42 7.34579 149.53 7.71605C150.641 8.08631 151.598 8.65712 152.4 9.4285C153.202 10.169 153.819 11.1255 154.251 12.298C154.714 13.4396 154.945 14.7973 154.945 16.3709V18.1759C154.945 20.2432 154.498 21.9865 153.603 23.4058C152.739 24.7943 151.536 25.8279 149.993 26.5067L155.732 36.5038C155.887 36.8123 155.964 37.0591 155.964 37.2443C155.964 37.8614 155.47 38.1699 154.483 38.1699H151.706C151.274 38.1699 150.934 38.0619 150.688 37.8459C150.441 37.63 150.194 37.306 149.947 36.874L144.81 27.3398H141.709V36.7814C141.709 37.7071 141.246 38.1699 140.32 38.1699H137.867ZM141.709 11.8815V22.619H145.504C148.157 22.619 149.484 21.2151 149.484 18.4073V16.1395C149.484 14.6893 149.16 13.6248 148.512 12.946C147.864 12.2363 146.815 11.8815 145.365 11.8815H141.709Z" fill="#2B2B2B"/>
<path d="M167.889 38.6307C164.878 38.6307 162.558 37.832 160.93 36.2345C159.302 34.6369 158.488 32.4404 158.488 29.6447C158.488 28.4158 159.087 27.8014 160.285 27.8014H162.359C163.311 27.8014 163.787 28.2622 163.787 29.1839C163.787 30.7507 164.141 31.9334 164.847 32.7322C165.554 33.531 166.568 33.9303 167.889 33.9303C169.087 33.9303 170.07 33.5924 170.838 32.9165C171.606 32.2407 171.99 31.3497 171.99 30.2438C171.99 29.1378 171.667 28.2469 171.022 27.571C170.377 26.8951 169.563 26.3114 168.58 25.8199C167.627 25.2976 166.583 24.806 165.446 24.3452C164.34 23.8537 163.296 23.2546 162.313 22.548C161.36 21.8414 160.562 20.9658 159.916 19.9213C159.271 18.8461 158.949 17.4482 158.949 15.7278C158.949 12.8093 159.747 10.5973 161.345 9.09196C162.973 7.58661 165.17 6.83393 167.935 6.83393C170.823 6.83393 173.034 7.60197 174.571 9.13804C176.137 10.6434 176.921 12.7939 176.921 15.5896C176.921 16.8184 176.322 17.4329 175.124 17.4329H173.05C172.097 17.4329 171.621 16.972 171.621 16.0504C171.621 14.4836 171.299 13.3469 170.654 12.6403C170.008 11.903 169.102 11.5343 167.935 11.5343C165.477 11.5343 164.248 12.7939 164.248 15.3131C164.248 16.4191 164.571 17.2946 165.216 17.9398C165.861 18.5849 166.66 19.1533 167.612 19.6448C168.595 20.1364 169.64 20.6125 170.746 21.0734C171.882 21.5342 172.927 22.1179 173.879 22.8245C174.862 23.5311 175.677 24.4374 176.322 25.5434C176.967 26.6493 177.289 28.0779 177.289 29.829C177.289 31.2422 177.044 32.5018 176.552 33.6078C176.091 34.683 175.446 35.6047 174.617 36.3727C173.787 37.11 172.789 37.6784 171.621 38.0778C170.485 38.4464 169.24 38.6307 167.889 38.6307ZM188.707 33.9303C190.028 33.9303 191.042 33.5617 191.749 32.8244C192.486 32.0871 192.855 30.935 192.855 29.3682C192.855 28.4465 193.331 27.9857 194.283 27.9857H196.357C197.555 27.9857 198.154 28.6002 198.154 29.829C198.154 31.2115 197.924 32.4557 197.463 33.5617C197.002 34.6369 196.342 35.5586 195.481 36.3266C194.652 37.0639 193.654 37.6323 192.486 38.0317C191.349 38.4311 190.09 38.6307 188.707 38.6307C185.174 38.6307 182.578 37.663 180.919 35.7276C179.261 33.7921 178.431 30.766 178.431 26.6493V18.8153C178.431 14.6986 179.261 11.6726 180.919 9.73712C182.578 7.80166 185.174 6.83393 188.707 6.83393C190.09 6.83393 191.349 7.03362 192.486 7.433C193.654 7.83238 194.652 8.40073 195.481 9.13804C196.342 9.87536 197.002 10.797 197.463 11.903C197.924 12.9782 198.154 14.2071 198.154 15.5896C198.154 16.8184 197.555 17.4329 196.357 17.4329H194.283C193.331 17.4329 192.855 16.972 192.855 16.0504C192.855 14.4836 192.486 13.3469 191.749 12.6403C191.042 11.903 190.028 11.5343 188.707 11.5343C187.048 11.5343 185.82 12.0105 185.021 12.9629C184.253 13.8845 183.869 15.3592 183.869 17.3868V28.0318C183.869 30.0594 184.253 31.5494 185.021 32.5018C185.82 33.4542 187.048 33.9303 188.707 33.9303ZM211.331 7.29475C212.037 7.29475 212.636 7.433 213.128 7.70949C213.65 7.95527 214.034 8.52361 214.28 9.41454L221.377 36.7414C221.469 37.0793 221.423 37.4019 221.238 37.7091C221.054 38.0163 220.655 38.1699 220.04 38.1699H217.736C217.122 38.1699 216.707 38.0624 216.492 37.8473C216.307 37.6016 216.154 37.2176 216.031 36.6953L214.372 29.9212H205.202L203.589 36.6953C203.466 37.2176 203.297 37.6016 203.082 37.8473C202.898 38.0624 202.498 38.1699 201.884 38.1699H199.58C198.965 38.1699 198.566 38.0163 198.381 37.7091C198.197 37.4019 198.151 37.0793 198.243 36.7414L205.34 9.41454C205.586 8.52361 205.954 7.95527 206.446 7.70949C206.968 7.433 207.583 7.29475 208.289 7.29475H211.331ZM206.354 25.2208H213.266L210.363 13.1472C210.301 12.9014 210.225 12.7478 210.132 12.6864C210.071 12.5942 209.963 12.5481 209.81 12.5481C209.656 12.5481 209.533 12.5942 209.441 12.6864C209.38 12.7478 209.318 12.9014 209.257 13.1472L206.354 25.2208ZM223.999 38.1699C223.077 38.1699 222.616 37.7091 222.616 36.7875V9.13804C222.616 8.58506 222.785 8.1396 223.123 7.80166C223.461 7.46372 223.906 7.29475 224.459 7.29475H227.363C227.977 7.29475 228.438 7.44836 228.745 7.75558C229.052 8.03207 229.267 8.2932 229.39 8.53898L238.376 28.0779C238.499 28.3237 238.607 28.508 238.699 28.6309C238.791 28.723 238.929 28.7691 239.114 28.7691C239.39 28.7691 239.528 28.5694 239.528 28.1701V8.67722C239.528 7.75558 239.989 7.29475 240.911 7.29475H243.123C244.044 7.29475 244.505 7.75558 244.505 8.67722V36.3266C244.505 36.8796 244.336 37.3251 243.998 37.663C243.66 38.001 243.215 38.1699 242.662 38.1699H239.759C239.144 38.1699 238.683 38.0317 238.376 37.7552C238.069 37.448 237.854 37.1715 237.731 36.9257L228.745 17.3868C228.591 17.1103 228.469 16.926 228.376 16.8338C228.284 16.7416 228.161 16.6956 228.008 16.6956C227.731 16.6956 227.593 16.8952 227.593 17.2946V36.7875C227.593 37.7091 227.132 38.1699 226.21 38.1699H223.999Z" fill="#D93F3F"/>
</svg>
